# xmcd
#
# Track frame offsets:
#	150
#	14520
#	26455
#	45167
#	59630
#	71092
#	85510
#	99095
#	108822
#	122505
#	137557
#	152507
#
# Disc length: 2193 seconds
#
# Revision: 0
# Processed by: cddbd v1.4PL0 Copyright (c) Steve Scherf et al.
# Submitted via: audiograbber 1.81.01
#
DISCID=86088f0c
DTITLE=Gino Del Vescovo - I Grandi Successi Originali cd2
DYEAR=1900
DGENRE=pop
TTITLE0=Na sera 'e maggio
TTITLE1=Come facette mammeta
TTITLE2=Suonno a marechiare
TTITLE3=Core 'ngrato
TTITLE4=Guapparia
TTITLE5='A tazza 'e caffè
TTITLE6='A Vucchella
TTITLE7='O marenariello
TTITLE8='O surdato 'nnamurato
TTITLE9=Mandulinata a napule
TTITLE10=Tarantella Luciana
TTITLE11=Tarantello d'o purpetiello
EXTD=
EXTT0=
EXTT1=
EXTT2=
EXTT3=
EXTT4=
EXTT5=
EXTT6=
EXTT7=
EXTT8=
EXTT9=
EXTT10=
EXTT11=
PLAYORDER=
